<?xml version="1.0" encoding="UTF-8" standalone="no"?>
<svg
   xmlns:dc="http://purl.org/dc/elements/1.1/"
   xmlns:cc="http://creativecommons.org/ns#"
   xmlns:rdf="http://www.w3.org/1999/02/22-rdf-syntax-ns#"
   xmlns:svg="http://www.w3.org/2000/svg"
   xmlns="http://www.w3.org/2000/svg"
   viewBox="0 0 121.78 100.20253"
   height="100.20253"
   width="121.78"
   xml:space="preserve"
   id="svg2"
   version="1.1"><metadata
     id="metadata8"><rdf:RDF><cc:Work
         rdf:about=""><dc:format>image/svg+xml</dc:format><dc:type
           rdf:resource="http://purl.org/dc/dcmitype/StillImage" /><dc:title></dc:title></cc:Work></rdf:RDF></metadata><defs
     id="defs6"><clipPath
       id="clipPath18"
       clipPathUnits="userSpaceOnUse"><path
         id="path16"
         d="M 0,75.152 H 91.335 V 0 H 0 Z" /></clipPath></defs><g
     transform="matrix(1.3333333,0,0,-1.3333333,0,100.20253)"
     id="g10"><g
       id="g12"><g
         clip-path="url(#clipPath18)"
         id="g14"><g
           transform="translate(36.377,75.1519)"
           id="g20"><path
             id="path22"
             style="fill:#000000;fill-opacity:1;fill-rule:evenodd;stroke:none"
             d="m 0,0 c 1.764,-4.443 0.977,-6.504 -2.054,-8.629 -5.278,-3.703 -10.468,-7.695 -14.99,-12.264 -5.185,-5.235 -7.011,-11.997 -5.42,-19.339 1.011,-4.663 3.391,-5.713 8.081,-4.849 3.813,0.703 7.908,1.574 11.593,0.871 5.65,-1.077 9.224,-5.357 10.264,-11.006 1.113,-6.047 -0.177,-11.537 -5.459,-15.571 -13.333,-10.175 -33.514,-1.668 -37.352,16.262 -3.847,17.971 3.242,32.364 16.917,43.533 C -13.024,-6.585 -6.363,-3.727 0,0" /></g><g
           transform="translate(83.8438,74.0161)"
           id="g24"><path
             id="path26"
             style="fill:#000000;fill-opacity:1;fill-rule:evenodd;stroke:none"
             d="m 0,0 c 1.411,-3.621 0.162,-5.568 -2.74,-7.632 -5.255,-3.737 -10.456,-7.721 -14.937,-12.325 -5.136,-5.276 -6.853,-12.055 -5.208,-19.397 0.936,-4.178 3.551,-5.652 7.801,-4.617 3.186,0.775 6.566,1.908 9.693,1.525 6.299,-0.773 10.528,-4.752 12.287,-10.91 1.778,-6.226 -0.528,-12.68 -5.56,-16.445 -13.252,-9.92 -32.855,-1.414 -37.183,16.159 -2.332,9.468 -0.757,18.505 3.403,27.132 C -26.293,-13.758 -13.522,-3.338 0,0" /></g></g></g></g></svg>