<?xml version="1.0" encoding="utf-8"?><svg xmlns="http://www.w3.org/2000/svg" xmlns:xlink="http://www.w3.org/1999/xlink"><symbol viewBox="0 0 25.18 16.164" id="arrow_down" xmlns="http://www.w3.org/2000/svg"><path d="M13.293 15.871a.99.99 0 0 1-1.406 0L.293 4.293a1.009 1.009 0 0 1 0-1.422L2.887.293a.99.99 0 0 1 1.406 0L12.59 8.59 20.887.293a.99.99 0 0 1 1.406 0l2.594 2.578a1.009 1.009 0 0 1 0 1.422L13.293 15.871z"/></symbol><symbol viewBox="0 0 2032 360.368" id="bg" xmlns="http://www.w3.org/2000/svg"><path clip-rule="evenodd" fill-rule="evenodd" d="M2032 360.368V0L1016 173 0 0v360.368z"/></symbol><symbol viewBox="0 0 18.164 13.922" id="check" xmlns="http://www.w3.org/2000/svg"><path d="M17.836 3.516L9.352 12l-1.594 1.594a1.136 1.136 0 0 1-1.594 0L4.57 12 .328 7.758a1.136 1.136 0 0 1 0-1.594L1.922 4.57a1.136 1.136 0 0 1 1.594 0l3.445 3.457L14.649.328a1.132 1.132 0 0 1 1.593 0l1.594 1.594a1.136 1.136 0 0 1 0 1.594z"/></symbol><symbol viewBox="1138.75 328.75 45 45" id="envelope_n" xmlns="http://www.w3.org/2000/svg"><path d="M1161.25 328.75c-12.427 0-22.5 10.073-22.5 22.5s10.073 22.5 22.5 22.5 22.5-10.073 22.5-22.5-10.073-22.5-22.5-22.5zm-13.281 17.604l7.269 4.442-7.269 9.138v-13.58zm.83 14.541l7.51-9.443 4.926 3.012 4.918-3.028 7.518 9.46h-24.872zm25.732-.921l-7.311-9.197 7.311-4.502v13.699zm0-15.163L1161.234 353l-13.265-8.106v-2.208h26.563v2.125z"/></symbol><symbol viewBox="0 0 26 22" id="github" xmlns="http://www.w3.org/2000/svg"><path d="M25.047 17.422C22.984 21.594 17.313 22 13.25 22 9.125 22 3.109 21.641.969 17.422.172 15.844 0 13.984 0 12.25c0-2.281.625-4.438 2.125-6.188a8.585 8.585 0 0 1-.422-2.656c0-1.172.266-2.343.797-3.406 2.469 0 4.047 1.078 5.922 2.547A20.895 20.895 0 0 1 13.25 2c1.469 0 2.953.156 4.375.5C19.484 1.047 21.063 0 23.5 0a7.629 7.629 0 0 1 .797 3.406c0 .891-.141 1.781-.422 2.625C25.375 7.797 26 9.969 26 12.25c0 1.734-.172 3.578-.953 5.172zM18.5 10.5c-1.031 0-2.016.188-3.047.328-.812.125-1.625.172-2.453.172s-1.641-.047-2.453-.172c-1.016-.14-2.016-.328-3.047-.328-2.547 0-4 2.109-4 4.5 0 4.781 4.375 5.516 8.188 5.516h2.625c3.813 0 8.188-.734 8.188-5.516-.001-2.391-1.454-4.5-4.001-4.5zM8 18c-1.406 0-2-1.859-2-3s.594-3 2-3 2 1.859 2 3-.594 3-2 3zm10 0c-1.406 0-2-1.859-2-3s.594-3 2-3 2 1.859 2 3-.594 3-2 3z"/></symbol><symbol viewBox="0 0 40 35" id="hamburger" xmlns="http://www.w3.org/2000/svg"><path d="M40 2.5A2.5 2.5 0 0 1 37.5 5h-35a2.5 2.5 0 1 1 0-5h35A2.5 2.5 0 0 1 40 2.5zm0 15a2.5 2.5 0 0 1-2.5 2.5h-35a2.5 2.5 0 1 1 0-5h35a2.5 2.5 0 0 1 2.5 2.5zm0 15a2.5 2.5 0 0 1-2.5 2.5h-35a2.5 2.5 0 1 1 0-5h35a2.5 2.5 0 0 1 2.5 2.5z"/></symbol><symbol viewBox="0 0 24 22.938" id="in" xmlns="http://www.w3.org/2000/svg"><path d="M2.875 5.344h-.031C1.109 5.344 0 4.156 0 2.672 0 1.156 1.156 0 2.906 0c1.766 0 2.859 1.156 2.875 2.672.016 1.484-1.109 2.672-2.906 2.672zm2.578 17.594H.297V7.453h5.156v15.485zm18.547 0h-5.141v-8.281c0-2.078-.75-3.5-2.609-3.5-1.422 0-2.266.953-2.641 1.875-.125.344-.172.797-.172 1.266v8.641h-5.14c.063-14.031 0-15.484 0-15.484h5.141v2.25h-.031c.672-1.063 1.891-2.609 4.672-2.609 3.391 0 5.922 2.219 5.922 6.969v8.873z"/></symbol><symbol viewBox="0 0 19.125 19.125" id="link" xmlns="http://www.w3.org/2000/svg"><path d="M18.129 16.441l-1.723 1.711a3.35 3.35 0 0 1-2.379.973 3.335 3.335 0 0 1-2.391-.996l-2.414-2.426a3.353 3.353 0 0 1-.972-2.379 3.43 3.43 0 0 1 1.031-2.449L8.25 9.844a3.407 3.407 0 0 1-2.438 1.031 3.392 3.392 0 0 1-2.391-.984L.984 7.453A3.34 3.34 0 0 1 0 5.063c0-.891.363-1.758.996-2.379L2.719.973A3.35 3.35 0 0 1 5.098 0C6 0 6.855.352 7.488.996l2.414 2.426a3.35 3.35 0 0 1 .973 2.379A3.43 3.43 0 0 1 9.844 8.25l1.031 1.031a3.407 3.407 0 0 1 2.438-1.031c.891 0 1.758.352 2.391.984l2.438 2.438c.645.645.984 1.488.984 2.391a3.356 3.356 0 0 1-.997 2.378zM8.309 5.004L5.895 2.578c-.211-.211-.504-.328-.797-.328s-.586.117-.797.316L2.578 4.277a1.116 1.116 0 0 0 0 1.583l2.438 2.438c.211.21.504.315.797.315.34 0 .609-.117.844-.363-.387-.387-.844-.715-.844-1.312 0-.621.504-1.125 1.125-1.125.598 0 .926.457 1.313.844.246-.234.387-.504.387-.855a1.142 1.142 0 0 0-.329-.798zm8.238 8.262l-2.438-2.438a1.136 1.136 0 0 0-1.641.047c.387.387.844.715.844 1.313 0 .621-.504 1.125-1.125 1.125-.598 0-.926-.457-1.313-.844-.246.234-.387.504-.387.855 0 .293.117.586.328.797l2.414 2.426c.211.211.504.316.797.316s.586-.105.797-.305l1.723-1.711c.211-.211.328-.492.328-.785a1.11 1.11 0 0 0-.327-.796z"/></symbol><symbol viewBox="0 0 14.137 15.422" id="login" xmlns="http://www.w3.org/2000/svg"><path d="M11.456 15.422H2.681C1.084 15.422 0 14.448 0 12.821c0-2.269.532-5.753 3.474-5.753.312 0 1.627 1.396 3.595 1.396s3.283-1.396 3.595-1.396c2.941 0 3.474 3.484 3.474 5.753-.001 1.627-1.085 2.601-2.682 2.601zM7.068 7.711A3.856 3.856 0 1 1 7.069 0a3.856 3.856 0 0 1-.001 7.711z"/></symbol><symbol viewBox="333.75 72.532 45 45" id="map_n" xmlns="http://www.w3.org/2000/svg"><circle cx="356.342" cy="92.018" r="5.854"/><path d="M356.25 72.532c-12.427 0-22.5 10.073-22.5 22.5s10.073 22.5 22.5 22.5 22.5-10.073 22.5-22.5-10.073-22.5-22.5-22.5zm0 37.882c-1.438-1.127-11.252-9.062-11.252-17.422 0-6.203 4.98-11.24 11.16-11.339v-.004l.092.001.092-.001v.004c6.18.099 11.16 5.136 11.16 11.339 0 8.36-9.814 16.295-11.252 17.422z"/></symbol><symbol viewBox="0 0 16.897 15.984" id="password" xmlns="http://www.w3.org/2000/svg"><path d="M15.743 12.078c-.261 0-1.074-.943-1.285-1.154l-.964.964 2.209 2.209a.973.973 0 0 1 .281.683c0 .563-.643 1.205-1.205 1.205a.978.978 0 0 1-.683-.281L7.359 8.966c-1.054.783-2.339 1.315-3.664 1.315C1.506 10.281 0 8.765 0 6.586 0 3.293 3.293 0 6.586 0c2.18 0 3.695 1.506 3.695 3.695 0 1.325-.532 2.61-1.315 3.665l3.564 3.564.964-.964c-.211-.211-1.154-1.024-1.154-1.285 0-.231.924-1.155 1.154-1.155.08 0 .171.041.23.101.372.372 3.173 3.012 3.173 3.303 0 .23-.923 1.154-1.154 1.154zM6.426 1.928a1.928 1.928 0 0 0-1.928 1.928c0 .291.07.572.19.833a1.973 1.973 0 0 0-.833-.191 1.928 1.928 0 1 0 1.928 1.928c0-.291-.07-.572-.19-.833.261.121.542.191.833.191a1.928 1.928 0 0 0 0-3.856z"/></symbol><symbol viewBox="338.678 110.5 45 45" id="phone_n" xmlns="http://www.w3.org/2000/svg"><path d="M361.178 110.5c-12.427 0-22.5 10.073-22.5 22.5s10.073 22.5 22.5 22.5 22.5-10.073 22.5-22.5-10.074-22.5-22.5-22.5zm13.433 31.703c-1.034 1.601-1.934 3.261-6.258 3.358-4.418.004-8.989-3.655-12.318-7.307-3.323-3.232-6.396-7.408-6.394-11.457.1-4.324 1.76-5.224 3.36-6.258 0 0 .876-.368 1.639.295.762.663 4.103 4.005 4.103 4.005s1.188.991.369 2.089c-.652.874-2.157 2.484-2.354 2.696l.564 1.063c.755 1.244 2.194 3.43 4.349 5.201 1.453 1.195 3.911 2.506 3.91 2.504.354-.329 1.823-1.689 2.641-2.301 1.098-.82 2.088.367 2.088.367s3.342 3.343 4.006 4.105c.663.764.295 1.64.295 1.64z"/></symbol><symbol viewBox="0 0 42.736 27.435" id="portf_arrow_down" xmlns="http://www.w3.org/2000/svg"><path d="M22.563 26.938a1.68 1.68 0 0 1-2.387 0L.498 7.286a1.712 1.712 0 0 1 0-2.413L4.9.497a1.68 1.68 0 0 1 2.387 0l14.082 14.082L35.45.497a1.682 1.682 0 0 1 2.388 0l4.401 4.376c.663.663.663 1.75 0 2.413L22.563 26.938z"/></symbol><symbol viewBox="0 0 42.736 27.435" id="portf_arrow_up" xmlns="http://www.w3.org/2000/svg"><path d="M42.239 20.149c.663.662.663 1.75 0 2.413l-4.401 4.376a1.684 1.684 0 0 1-2.388 0L21.369 12.856 7.287 26.938a1.683 1.683 0 0 1-2.387 0L.498 22.562a1.712 1.712 0 0 1 0-2.413L20.175.498a1.68 1.68 0 0 1 2.387 0l19.677 19.651z"/></symbol><symbol viewBox="0 0 121.78 100.20253" id="quotes" xmlns="http://www.w3.org/2000/svg"><defs><clipPath id="oa"><path d="M0 75.152h91.335V0H0z"/></clipPath></defs><g clip-path="url(#oa)" transform="matrix(1.33333 0 0 -1.33333 0 100.203)"><path d="M36.377 75.152c1.764-4.443.977-6.504-2.054-8.63-5.278-3.702-10.468-7.694-14.99-12.263-5.185-5.235-7.011-11.997-5.42-19.34 1.011-4.662 3.391-5.712 8.081-4.848 3.813.703 7.908 1.574 11.593.87 5.65-1.076 9.224-5.356 10.264-11.005 1.113-6.047-.177-11.537-5.459-15.571C25.059-5.81 4.878 2.697 1.04 20.627-2.807 38.597 4.282 52.99 17.957 64.16c5.396 4.407 12.057 7.265 18.42 10.992m47.467-1.136c1.41-3.62.162-5.568-2.74-7.632-5.255-3.737-10.456-7.72-14.937-12.325-5.136-5.276-6.853-12.055-5.208-19.397.936-4.178 3.55-5.652 7.8-4.617 3.187.775 6.567 1.908 9.694 1.525 6.299-.773 10.528-4.752 12.287-10.91 1.778-6.226-.528-12.68-5.56-16.445-13.252-9.92-32.855-1.414-37.183 16.16-2.332 9.467-.757 18.504 3.403 27.131 6.15 12.752 18.922 23.172 32.444 26.51" fill-rule="evenodd"/></g></symbol><symbol viewBox="0 0 600 600" id="skype_n" xmlns="http://www.w3.org/2000/svg"><path d="M279.518 275.888c-45.067-11.173-20.4-50.52 16.12-49.933 35.44.573 53.466 38.76 69.533 36.787 16.106-1.987 29.813-26.587 4.506-48.6-21.906-19.067-49.573-29.574-92.093-25.627-33.36 3.093-65.04 24.973-68.906 67.653-3.867 42.707 45.746 64.387 85.026 70.307 27.52 4.133 65.067 17.72 42.52 43.987-20.72 24.173-59.906 9.226-70.213 2.666-10.307-6.6-21.92-30.253-41.253-28.933-19.36 1.293-28.88 27.2-5.134 49.92 21.267 20.347 44.454 31.52 94.027 28.893 49.626-2.64 94.053-47.28 76.653-89.333-17.373-42.04-65.667-46.613-110.786-57.787z"/><path d="M299.877.822c-165.693 0-300 134.306-300 300 0 165.68 134.307 300 300 300 165.694 0 300-134.32 300-300 0-165.694-134.306-300-300-300zm76.747 469.72c-18.04 0-34.88-5.254-49.173-14.227-9.2 1.693-18.667 2.64-28.387 2.64-86.106 0-155.84-70.427-155.84-157.307 0-8.413.654-16.706 1.934-24.786-9.48-14.787-14.987-32.4-14.987-51.374 0-52.12 41.613-94.373 93-94.373 18.733 0 36.147 5.64 50.8 15.32a151.34 151.34 0 0 1 25.107-2.08c86.066 0 155.84 70.453 155.84 157.32 0 7.213-.52 14.333-1.454 21.347 10.2 15.133 16.147 33.44 16.16 53.16 0 52.133-41.627 94.36-93 94.36z"/></symbol><symbol viewBox="0 0 30.011 17.123" id="vk" xmlns="http://www.w3.org/2000/svg"><path d="M27.625 5.832c-3.031 4.031-3.359 3.656-.859 5.984 2.406 2.234 2.906 3.313 2.984 3.453 0 0 1 1.75-1.109 1.766l-4 .063c-.859.172-2-.609-2-.609-1.5-1.031-2.906-3.703-4-3.359 0 0-1.125.359-1.094 2.766.016.516-.234.797-.234.797s-.281.297-.828.344h-1.797c-3.953.25-7.438-3.391-7.438-3.391S3.437 9.707.093 1.848c-.219-.516.016-.766.016-.766S.343.785 1 .785L5.281.754c.406.063.688.281.688.281s.25.172.375.5c.703 1.75 1.609 3.344 1.609 3.344 1.563 3.219 2.625 3.766 3.234 3.438 0 0 .797-.484.625-4.375-.063-1.406-.453-2.047-.453-2.047-.359-.485-1.031-.625-1.328-.672-.234-.031.156-.594.672-.844.766-.375 2.125-.391 3.734-.375 1.266.016 1.625.094 2.109.203 1.484.359.984 1.734.984 5.047 0 1.063-.203 2.547.563 3.031.328.219 1.141.031 3.141-3.375 0 0 .938-1.625 1.672-3.516.125-.344.391-.484.391-.484s.25-.141.594-.094l4.5-.031c1.359-.172 1.578.453 1.578.453.234.641-.501 2.141-2.344 4.594z"/></symbol></svg>